<svg xmlns="http://www.w3.org/2000/svg" viewBox="0 0 64 64" id="IncreaseProjectManagement"><g fill="#ffffff" class="color000000 svgShape"><path d="M59,10H46.39a.96.96,0,0,0-.25-.49L40.49,3.86a1.008,1.008,0,0,0-1.42,0L37.71,5.22c-.24-.1-.47-.2-.71-.29V3a1,1,0,0,0-1-1H28a1,1,0,0,0-1,1V4.93c-.24.09-.47.19-.71.29L24.93,3.86a1.008,1.008,0,0,0-1.42,0L17.86,9.51a.96.96,0,0,0-.25.49H5a3.009,3.009,0,0,0-3,3V47a3.009,3.009,0,0,0,3,3H26v4H21a1,1,0,0,0-1,1v6a1,1,0,0,0,1,1H43a1,1,0,0,0,1-1V55a1,1,0,0,0-1-1H38V50H59a3.009,3.009,0,0,0,3-3V13A3.009,3.009,0,0,0,59,10ZM21.14,11.38,20,10.24V10.2l4.22-4.22,1.16,1.16a.989.989,0,0,0,1.16.18,11.032,11.032,0,0,1,1.77-.73A1.012,1.012,0,0,0,29,5.63V4h6V5.63a1.012,1.012,0,0,0,.69.96,11.032,11.032,0,0,1,1.77.73.989.989,0,0,0,1.16-.18l1.16-1.16L44,10.2v.04l-1.14,1.14a.989.989,0,0,0-.18,1.16,11.032,11.032,0,0,1,.73,1.77,1.012,1.012,0,0,0,.96.69H46v6H44.37a1.012,1.012,0,0,0-.96.69,11.032,11.032,0,0,1-.73,1.77.989.989,0,0,0,.18,1.16l1.16,1.16-4.24,4.24-1.16-1.16a.989.989,0,0,0-1.16-.18,11.032,11.032,0,0,1-1.77.73,1.012,1.012,0,0,0-.69.96V32H29V30.37a1.012,1.012,0,0,0-.69-.96,11.032,11.032,0,0,1-1.77-.73.989.989,0,0,0-1.16.18l-1.16,1.16-4.24-4.24,1.16-1.16a.989.989,0,0,0,.18-1.16,11.032,11.032,0,0,1-.73-1.77,1.012,1.012,0,0,0-.96-.69H18V15h1.63a1.012,1.012,0,0,0,.96-.69,11.032,11.032,0,0,1,.73-1.77A.989.989,0,0,0,21.14,11.38ZM42,56v4H22V56ZM28,54V50h8v4Zm32-7a1,1,0,0,1-1,1H5a1,1,0,0,1-1-1V44H60Zm0-5H4V13a1,1,0,0,1,1-1H18.93l.29.29c-.1.24-.2.47-.29.71H17a1,1,0,0,0-1,1v8a1,1,0,0,0,1,1h1.93c.09.24.19.47.29.71l-1.36,1.36a1.008,1.008,0,0,0,0,1.42l5.65,5.65a1.008,1.008,0,0,0,1.42,0l1.36-1.36c.24.1.47.2.71.29V33a1,1,0,0,0,1,1h8a1,1,0,0,0,1-1V31.07c.24-.09.47-.19.71-.29l1.36,1.36a1.008,1.008,0,0,0,1.42,0l5.65-5.65a1.008,1.008,0,0,0,0-1.42l-1.36-1.36c.1-.24.2-.47.29-.71H47a1,1,0,0,0,1-1V14a1,1,0,0,0-1-1H45.07c-.09-.24-.19-.47-.29-.71l.29-.29H59a1,1,0,0,1,1,1Z" fill="#ffffff" class="color000000 svgShape"></path><path d="M7 15H9V13H6a1 1 0 0 0-1 1v3H7zM32 27a9 9 0 1 0-9-9A9.011 9.011 0 0 0 32 27zm0-16a7 7 0 1 1-7 7A7.008 7.008 0 0 1 32 11z" fill="#ffffff" class="color000000 svgShape"></path><path d="M32 24a6 6 0 1 0-6-6A6.006 6.006 0 0 0 32 24zm0-10a4 4 0 1 1-4 4A4 4 0 0 1 32 14zM53.848 19.47a1.039 1.039 0 0 0-1.7 0l-5 8A1 1 0 0 0 48 29h2v5a1 1 0 0 0 1 1h4a1 1 0 0 0 1-1V29h2a1 1 0 0 0 .848-1.53zM55 27a1 1 0 0 0-1 1v5H52V28a1 1 0 0 0-1-1H49.8L53 21.887 56.2 27zM12.848 25.47a1.039 1.039 0 0 0-1.7 0l-5 8A1 1 0 0 0 7 35H9v5a1 1 0 0 0 1 1h4a1 1 0 0 0 1-1V35h2a1 1 0 0 0 .848-1.53zM14 33a1 1 0 0 0-1 1v5H11V34a1 1 0 0 0-1-1H8.8L12 27.887 15.2 33z" fill="#ffffff" class="color000000 svgShape"></path><rect width="2" height="2" x="5" y="19" fill="#ffffff" class="color000000 svgShape"></rect></g></svg>