<svg xmlns="http://www.w3.org/2000/svg" enable-background="new 0 0 64 64" viewBox="0 0 64 64" id="ChemicalFactory"><g fill="#ffffff" class="color000000 svgShape"><path d="M59.05,39.27h-0.08l-0.84-10.84c0-0.02,0.01-0.04,0.01-0.06c0-0.05-0.02-0.09-0.03-0.14l-0.4-5.21
		c0.01-0.03,0.02-0.06,0.02-0.1c0-0.07-0.02-0.14-0.04-0.21l-0.48-6.2c-0.03-0.45-0.41-0.81-0.87-0.81h-6.35
		c-0.47,0-0.86,0.37-0.88,0.83l-0.37,6.39c0,0.01,0,0.01,0,0.01l-0.3,5.44l-0.61,10.9H44.7l-0.84-10.84c0-0.03,0.01-0.04,0.01-0.06
		c0-0.05-0.02-0.09-0.02-0.14l-0.4-5.21c0-0.03,0.02-0.06,0.02-0.1c0-0.07-0.03-0.14-0.05-0.21l-0.47-6.2
		c-0.04-0.45-0.42-0.81-0.88-0.81h-6.35c-0.47,0-0.86,0.37-0.88,0.83l-0.36,6.39c0,0.01,0,0.01,0,0.01l-0.31,5.43c0,0,0,0,0,0.01
		l-0.61,10.9h-2.29V25.81c0-0.48-0.4-0.88-0.88-0.88H3.33c-0.48,0-0.88,0.4-0.88,0.88v37.31c0,0.48,0.4,0.88,0.88,0.88h55.72
		c1.38,0,2.5-1.13,2.5-2.5V41.77C61.55,40.39,60.43,39.27,59.05,39.27z M29.5,62.23h-8.05v-7.59c0-0.73-0.59-1.31-1.31-1.31h-6.57
		c-0.72,0-1.3,0.58-1.3,1.31v7.59H4.21V26.69H29.5V62.23z M50.81,17.45h4.7l0.36,4.58h-5.31L50.81,17.45z M50.15,29.24h6.27
		l0.78,10.02h-7.61L50.15,29.24z M36.54,17.45h4.7l0.36,4.58h-5.31L36.54,17.45z M35.89,29.24h6.27l0.77,10.02h-7.6L35.89,29.24z
		 M59.79,61.5c0,0.4-0.34,0.73-0.74,0.73h-5.5v-8.52c0-0.68-0.55-1.23-1.23-1.23h-13.6c-0.68,0-1.23,0.55-1.23,1.23v8.52h-6.21
		v-21.2h17.41c0.01,0,0.01,0,0.01,0h10.36c0.4,0,0.74,0.34,0.74,0.74V61.5z" fill="#ffffff" class="color000000 svgShape"></path><path d="M38.46 44.31v3.86c0 .76-.63 1.38-1.39 1.38h-2.1c-.77 0-1.39-.62-1.39-1.38v-3.86c0-.77.62-1.39 1.39-1.39h2.1C37.83 42.91 38.46 43.54 38.46 44.31zM44.77 44.31v3.86c0 .76-.62 1.38-1.39 1.38h-2.1c-.77 0-1.39-.62-1.39-1.38v-3.86c0-.77.62-1.39 1.39-1.39h2.1C44.15 42.91 44.77 43.54 44.77 44.31zM51.08 44.31v3.86c0 .76-.62 1.38-1.39 1.38h-2.1c-.77 0-1.39-.62-1.39-1.38v-3.86c0-.77.62-1.39 1.39-1.39h2.1C50.46 42.91 51.08 43.54 51.08 44.31zM57.39 44.31v3.86c0 .76-.62 1.38-1.39 1.38h-2.1c-.77 0-1.39-.62-1.39-1.38v-3.86c0-.77.62-1.39 1.39-1.39H56C56.77 42.91 57.39 43.54 57.39 44.31zM26.03 30.99v4.15c0 .49-.4.89-.88.89H8.56c-.48 0-.88-.4-.88-.89v-4.15c0-.49.4-.89.88-.89h16.59C25.64 30.1 26.03 30.5 26.03 30.99zM16.16 38.84v3.42c0 .63-.52 1.16-1.16 1.16H8.83c-.63 0-1.15-.52-1.15-1.16v-3.42c0-.63.51-1.16 1.15-1.16H15C15.63 37.69 16.16 38.21 16.16 38.84zM26.03 38.84v3.42c0 .63-.51 1.16-1.16 1.16h-6.16c-.63 0-1.16-.52-1.16-1.16v-3.42c0-.63.52-1.16 1.16-1.16h6.16C25.52 37.69 26.03 38.21 26.03 38.84zM16.16 46.23v3.42c0 .64-.52 1.16-1.16 1.16H8.83c-.63 0-1.15-.51-1.15-1.16v-3.42c0-.63.51-1.16 1.15-1.16H15C15.63 45.08 16.16 45.6 16.16 46.23zM26.03 46.23v3.42c0 .64-.51 1.16-1.16 1.16h-6.16c-.63 0-1.16-.51-1.16-1.16v-3.42c0-.63.52-1.16 1.16-1.16h6.16C25.52 45.08 26.03 45.6 26.03 46.23zM44.77 6.84c0 1.86-1.47 3.38-3.31 3.45v1.66c0 1.34-1.1 2.43-2.44 2.43s-2.44-1.09-2.44-2.43v-1.62c-1.03-.06-1.9-.44-2.53-1.12-.5-.54-.8-1.23-.86-1.97-1.67-.4-2.81-1.86-2.81-3.57 0-2.03 1.65-3.68 3.68-3.68 1.07 0 2.14.49 2.89 1.31.52.58.86 1.3.97 2.08h3.4C43.22 3.4 44.77 4.95 44.77 6.84zM59.03 6.84c0 1.86-1.47 3.38-3.31 3.45v1.66c0 1.34-1.09 2.43-2.43 2.43-1.34 0-2.44-1.09-2.44-2.43v-1.62c-1.02-.05-1.9-.43-2.53-1.12-.5-.54-.81-1.23-.87-1.97-1.66-.4-2.8-1.86-2.8-3.57C44.65 1.65 46.3 0 48.34 0c1.07 0 2.14.49 2.88 1.31.53.58.87 1.3.98 2.08h3.39C57.49 3.4 59.03 4.95 59.03 6.84z" fill="#ffffff" class="color000000 svgShape"></path></g></svg>