<svg xmlns="http://www.w3.org/2000/svg" enable-background="new 0 0 100 100" viewBox="0 0 100 100" id="machinelearning"><path d="M37.56,44h-2.22c-3.74,0-6.78,2.69-6.78,6c0,0.55-0.45,1-1,1s-1-0.45-1-1c0-4.41,3.94-8,8.78-8h2.22
	c2.51,0,4.56-1.79,4.56-4c0-0.55,0.45-1,1-1s1,0.45,1,1C44.11,41.31,41.17,44,37.56,44z M89,50c0,2.76-2.24,5-5,5
	c-2.41,0-4.43-1.72-4.9-4H60c-0.55,0-1-0.45-1-1s0.45-1,1-1h19.1c0.46-2.28,2.48-4,4.9-4C86.76,45,89,47.24,89,50z M87,50
	c0-1.65-1.35-3-3-3s-3,1.35-3,3s1.35,3,3,3S87,51.65,87,50z M83,68c0,2.76-2.24,5-5,5c-2.41,0-4.43-1.72-4.9-4H70
	c-0.27,0-0.52-0.11-0.71-0.29L61.59,61H56c-0.55,0-1-0.45-1-1s0.45-1,1-1h6c0.27,0,0.52,0.11,0.71,0.29L70.41,67h2.69
	c0.46-2.28,2.48-4,4.9-4C80.76,63,83,65.24,83,68z M81,68c0-1.65-1.35-3-3-3s-3,1.35-3,3s1.35,3,3,3S81,69.65,81,68z M73.1,31
	c0.46-2.28,2.48-4,4.9-4c2.76,0,5,2.24,5,5s-2.24,5-5,5c-2.41,0-4.43-1.72-4.9-4h-2.69l-7.71,7.71C62.52,40.89,62.27,41,62,41h-6
	c-0.55,0-1-0.45-1-1s0.45-1,1-1h5.59l7.71-7.71C69.48,31.11,69.73,31,70,31H73.1z M75,32c0,1.65,1.35,3,3,3s3-1.35,3-3s-1.35-3-3-3
	S75,30.35,75,32z M71,82c0,2.76-2.24,5-5,5s-5-2.24-5-5c0-1.41,0.59-2.68,1.53-3.59L57.47,71H53v9c0,6.07-5.43,11-12.11,11
	c-6.68,0-12.11-4.93-12.11-11c0-0.32,0.02-0.63,0.05-0.95c0-0.03,0-0.06,0-0.09C22.59,78.53,17.67,73.78,17.67,68
	c0-0.4,0.03-0.8,0.08-1.2c0.01-0.07,0.02-0.15,0.03-0.22c0.1-0.74,0.28-1.46,0.55-2.16C13.66,60.8,11,55.58,11,50
	c0-7.17,4.49-13.73,11.51-16.94c-0.03-0.1-0.04-0.2-0.06-0.3c-0.07-0.29-0.13-0.59-0.18-0.89c-0.03-0.16-0.05-0.33-0.07-0.49
	c-0.05-0.46-0.09-0.91-0.09-1.38c0-6.13,4.64-11.34,11.14-12.67C33.63,12.68,37.91,9,43.11,9C48.56,9,53,13.04,53,18v11h4.47
	l5.06-7.41C61.59,20.68,61,19.41,61,18c0-2.76,2.24-5,5-5s5,2.24,5,5s-2.24,5-5,5c-0.63,0-1.22-0.13-1.78-0.34l-5.4,7.91
	C58.64,30.84,58.33,31,58,31h-5v22.99c0,0,0,0,0,0V69h5c0.33,0,0.64,0.16,0.83,0.44l5.4,7.91C64.78,77.13,65.37,77,66,77
	C68.76,77,71,79.24,71,82z M63,18c0,1.65,1.35,3,3,3s3-1.35,3-3s-1.35-3-3-3S63,16.35,63,18z M51,80v-5.69
	C49.82,75.35,48.21,76,46.44,76c-0.55,0-1-0.45-1-1s0.45-1,1-1c2.51,0,4.56-1.79,4.56-4V57.02c-1.26,1.11-2.9,1.83-4.63,1.96
	C46.19,58.99,46,59,45.82,59c-0.1,0-0.19-0.02-0.29-0.02c-3.67,0.87-5.54,2.79-5.54,5.71c0,0.55-0.45,1-1,1s-1-0.45-1-1
	c0-2.93,1.45-5.21,4.15-6.6c-1.23-0.63-2.28-1.56-2.98-2.71c-0.29-0.47-0.14-1.09,0.33-1.37c0.47-0.29,1.09-0.14,1.37,0.33
	c1.04,1.71,3.24,2.8,5.36,2.65c2.05-0.15,3.98-1.46,4.77-3.22V30.94c-3.85-0.34-7.91-2.63-8.86-6.71c-0.13-0.54,0.21-1.08,0.75-1.2
	c0.54-0.13,1.08,0.21,1.2,0.75c0.79,3.38,4.26,4.86,6.92,5.16V18c0-3.86-3.54-7-7.89-7c-4.35,0-7.89,3.14-7.89,7v0.17
	c0,0.49-0.36,0.92-0.85,0.99c-5.94,0.9-10.26,5.45-10.26,10.84c0,0.32,0.02,0.63,0.05,0.94c0.01,0.06,0.02,0.12,0.02,0.18
	c0.03,0.26,0.07,0.51,0.12,0.77c0.01,0.06,0.03,0.13,0.04,0.19c0.05,0.23,0.11,0.46,0.18,0.69c0.03,0.1,0.06,0.2,0.09,0.3
	c0.49,1.51,1.34,2.92,2.5,4.12c0.38,0.4,0.37,1.03-0.02,1.41c-0.19,0.19-0.45,0.28-0.7,0.28c-0.26,0-0.52-0.1-0.72-0.3
	c-1.05-1.08-1.87-2.31-2.47-3.63C16.98,37.86,13,43.67,13,50c0,4.84,2.27,9.37,6.25,12.6c0.84-1.35,1.97-2.55,3.38-3.48
	c0.46-0.3,1.08-0.18,1.39,0.28c0.31,0.46,0.18,1.08-0.28,1.39c-1.5,1-2.62,2.31-3.3,3.79c-0.1,0.21-0.19,0.43-0.27,0.64
	c-0.05,0.12-0.09,0.25-0.13,0.38c-0.05,0.16-0.1,0.32-0.14,0.48c-0.05,0.2-0.08,0.39-0.12,0.59c-0.02,0.12-0.04,0.23-0.06,0.35
	c-0.04,0.33-0.06,0.65-0.06,0.99c0,4.8,4.25,8.73,9.58,8.98c0.35-1.12,0.89-2.19,1.63-3.17c0.33-0.44,0.96-0.53,1.4-0.2
	c0.44,0.33,0.53,0.96,0.2,1.4c-0.8,1.07-1.32,2.27-1.55,3.52c-0.02,0.1-0.03,0.19-0.05,0.29c-0.06,0.39-0.1,0.78-0.1,1.18
	c0,4.96,4.54,9,10.11,9S51,84.96,51,80z M69,82c0-1.65-1.35-3-3-3s-3,1.35-3,3s1.35,3,3,3S69,83.65,69,82z" fill="#ffffff" class="color000000 svgShape"></path></svg>